<?xml version="1.0" encoding="UTF-8"?>
<!-- Generator: Adobe Illustrator 16.0.0, SVG Export Plug-In . SVG Version: 6.00 Build 0)  -->
<!DOCTYPE svg PUBLIC "-//W3C//DTD SVG 1.1//EN" "http://www.w3.org/Graphics/SVG/1.1/DTD/svg11.dtd">
<svg version="1.1" id="Layer_1" xmlns="http://www.w3.org/2000/svg" xmlns:xlink="http://www.w3.org/1999/xlink" x="0px" y="0px" width="640px" height="200px" viewBox="0 0 640 200" enable-background="new 0 0 640 200" xml:space="preserve">
<g>
	<g>
		<path d="M185.36,149c2.32-12.62,8.62-24.88,18.96-32.75c7.23-5.59,16.87-8.55,25.91-6.37c8.66,1.96,15.69,8.56,19.56,16.37    c3.62,6.99,4.78,14.94,4.89,22.73L185.36,149z M227.224,137.9c-0.321-3.14-1.536-8.82-4.344-8.84    c-3.36,0.188-5.566,5.887-6.401,8.84H227.224z"/>
	</g>
	<path d="M393.69,113.72c5.69-3.2,12.37-5.26,18.92-4.27c3.85,0.92,7.81,3.1,9.99,6.41c-0.35,7.55-1.36,15.08-2.2,22.6   c-8.12-2.37-16.65,2.9-19.61,10.5c-9.99,0.05-19.98,0.08-29.96-0.02C373.14,134.77,381.15,121.1,393.69,113.72z"/>
	<path d="M178.66,136.12c-5.04-0.76-10.13-2.5-15.27-1.65c-1.11,0.37-2.93,0.98-2.65,2.49c0.72,1.94,2.71,2.88,4.34,3.94   c4.21,2.38,8.4,4.84,12.11,7.97l-44.23,0.11c-2.18-8.04-1.88-17.15,2.65-24.36c4.95-8.24,14.41-12.56,23.55-14.23   c7.47-0.62,16.21-0.28,21.66,5.61L178.66,136.12z"/>
	<path d="M256.01,148.96c1.03-12.41,2.3-24.8,3.73-37.16c8.25,0.01,16.5,0.02,24.76,0c-0.16,2.1-0.29,4.21-0.43,6.32   c6.03-4.28,13-7.03,20.21-8.57c-0.64,9.24-1,18.49-1.81,27.72c-8.5,1.41-16.4,5.49-22.42,11.63L256.01,148.96z"/>
	<path d="M61.84,148.99c1.86-10.92,6.82-21.61,15.07-29.16c5.3-4.9,12.99-7.97,20.17-5.83c3.8,0.97,6.82,3.58,9.67,6.14l0.97-8.28   c8.27-0.16,16.54,0.01,24.81-0.05l-3.82,37.17c-8.59,0.03-17.18,0.01-25.77,0.01c-0.66-3.48-0.96-8.58-5.01-9.72   c-4.88,0.17-6.3,6-7.78,9.73L61.84,148.99z"/>
	<path d="M89.54,158.16c0.7,3.01,1.07,7.06,4.41,8.36c4.63,0.28,6.27-5.05,7.83-8.46c8.66,0.06,17.32,0.04,25.98,0.01l-3.69,35.5   c-8.31-0.01-16.62-0.01-24.93,0c0.22-1.61,0.45-3.2,0.69-4.8c-4.43,3.74-9.8,7.02-15.79,6.9c-6.66,0.27-12.73-3.87-16.38-9.2   c-5.69-8.22-7.36-18.55-7.03-28.37L89.54,158.16z"/>
	<path d="M131.88,165.09c7.24,2.48,14.36,6,22.1,6.56c1.46,0.3,4.27-0.51,3.26-2.51c-3.62-5.59-11.66-5.9-15.7-10.99l42.32,0.04   c0.19,0.45,0.56,1.34,0.75,1.79c0-0.47-0.01-1.42-0.01-1.89l29.13,0.01c0.44,3.87,0.5,8.07,2.76,11.42   c0.81,1.41,3.09,1.52,4.04,0.13c2.47-2.41,3.42-5.84,4.63-8.96l27.75,0.01c-3.15,12.33-10.3,24.13-21.32,30.9   c-8.32,5.22-19.36,6.6-28.28,2.09c-9.76-4.86-15.83-15.1-17.73-25.58c-0.89,8.12-4.48,16.35-11.53,20.92   c-13.22,8.77-32.52,7.59-44.29-3.18L131.88,165.09z"/>
	<path d="M369.84,158.13c10.2-0.06,20.41-0.07,30.62,0.01c2.54,6.81,10.22,10.65,17.21,8.46c-0.93,7.64-1.26,15.38-2.54,22.97   c-4.17,4.18-10.24,6.89-16.24,6.19c-10.86-0.57-20.18-8.46-24.61-18.08C371.23,171.62,370.36,164.81,369.84,158.13z"/>
	<path d="M567.44,158.1c9.67,0.01,19.34-0.06,29.02,0.04c0.37,4.22,0.34,9.15,3.64,12.31c1.35,0.41,2.45,0.07,3.31-1.03   c2.29-2.42,3.21-5.71,4.37-8.74c9.27,0.01,18.54,0,27.81,0.01c-3.27,12.72-10.82,24.85-22.39,31.51c-8.71,5.1-20.2,5.88-28.98,0.54   C572.45,185.76,566.95,171.32,567.44,158.1z"/>
</g>
<g>
	<polygon points="36.913,165.456 45.77,81.19 13.898,81.19 2.196,192.529 56.717,192.529 59.563,165.456  "/>
</g>
<polygon points="563.45,149.009 573.931,113.77 547.934,113.77 537.65,148.18 534.051,113.77 508.329,113.77 511.418,149.009 "/>
<path d="M560.65,158.1c-16.09-0.03-32.19,0.02-48.28-0.02l3.519,34.449h34.208L560.65,158.1z"/>
<g>
	<polygon points="472.048,158.08 468.489,192.529 494.662,192.529 498.172,158.08  "/>
	<polygon points="499.097,149 502.687,113.77 476.625,113.77 472.985,149  "/>
</g>
<polygon points="453.561,192.529 457.051,158.1 431.001,158.1 427.715,192.529 "/>
<g>
	<path fill="none" d="M320.58,174.31l-6.05,18.219h32.241l-2.411-18.109C336.44,174.15,328.51,174.34,320.58,174.31z"/>
	<polygon points="254.93,158.17 251.399,192.529 276.459,192.529 279.79,158.07  "/>
	<path fill="#FF0000" d="M299.97,158.1l-11.376,34.429h25.937l6.05-18.219c7.93,0.03,15.86-0.16,23.78,0.11l2.411,18.109h26.02   l-4.721-34.379L299.97,158.1z"/>
</g>
<polygon points="479.394,84.709 477.125,106.675 503.237,106.675 505.475,84.709 "/>
<polygon points="471.99,113.77 461.687,113.77 461.678,113.77 464.475,84.709 438.394,84.709 435.587,113.77 425.5,113.77   422.98,137.9 433.132,137.9 431.985,149 458.097,149 459.228,137.9 469.752,137.9 "/>
<path fill="#FF0000" d="M329.087,149.006c0.014-0.009,0.029-0.017,0.042-0.026c2.72-8.26,5.51-16.51,8.3-24.75  c1.29,8.24,2.2,16.53,3.44,24.77c0.003,0.002,0.006,0.004,0.009,0.006h25.923c0.002-0.002,0.005-0.004,0.008-0.006l-8.892-67.81  h-32.081l-22.748,67.74c0.042,0.027,0.086,0.049,0.128,0.076H329.087z"/>
<path d="M629.92,122.03c-4.64-6.99-12.34-12.09-20.8-12.76c-8.39-0.79-16.71,2.53-23.16,7.76c-9.71,7.92-15.78,19.73-17.91,31.97  l69.25-0.01C637.28,139.59,635.39,129.85,629.92,122.03z M603.75,129.667c1.1-0.82,2.997-0.415,3.708,0.458  c1.258,1.543,2.125,4.333,2.472,7.792h-10.897C599.583,134.917,601.012,131.435,603.75,129.667z"/>
<g>
	<path fill-rule="evenodd" clip-rule="evenodd" d="M82.477,62.697c1.261,1.275,0.102,1.697-0.428,1.802l0,0l-5.599,0.53L78.457,72   h19.439l0.022-9.786l0,0C87.782,58.719,80.5,49.098,80.5,37.773c0-8.697,4.296-16.392,10.883-21.075   c3.803-2.323,3.978,0.792,4.207,1.849l0,0v25.987l0,0c0,4.757,3.086,8.793,7.367,10.213c0.924,0.329,1.447,0.764,1.379,1.952l0,0   L104.312,72h4.202l-0.006-15.528l0,0c0-0.697,0-1.396,1.223-1.746c4.236-1.445,7.372-5.466,7.372-10.192l0,0V17.913l0,0   c0.019-2.746,2.123-2.755,3.506-1.691c6.654,4.544,11.583,12.351,11.583,21.551c0,11.394-7.372,21.064-17.607,24.504l0,0   L114.585,72h19.545l2.007-7.079l-5.07-0.633l0,0c-0.809-0.27-1.903-0.843-0.477-1.957c6.339-6.256,10.266-14.947,10.266-24.559   c0-16.743-11.921-30.7-27.74-33.847l0,0l-0.009,35.96l0,0c0,3.463-3.293,6.274-6.76,6.274c-3.466,0-6.867-2.811-6.867-6.274l0,0   l0.009-35.986l0,0c-15.88,3.096-27.654,17.083-27.654,33.873C71.834,47.573,75.92,56.418,82.477,62.697L82.477,62.697z"/>
	<polygon fill-rule="evenodd" clip-rule="evenodd" points="398.576,42.878 404.708,35.543 429.807,35.543 423.101,42.878    398.576,42.878 398.576,42.878  "/>
	<polygon fill-rule="evenodd" clip-rule="evenodd" points="454.362,42.878 460.495,35.543 485.647,35.543 478.887,42.878    454.362,42.878 454.362,42.878  "/>
	<path fill-rule="evenodd" clip-rule="evenodd" d="M164.889,63.155V23.856l0,0c0-1.161-0.211-4.752-0.634-5.493l0,0h42.891l0,0   c8.766,0,14.366,3.592,14.366,16.903c0,13.312-6.867,16.058-16.479,16.058l0,0h-13.522l-6.337-7.184h15.421l0,0   c6.443,0.051,6.338-6.233,6.443-8.768c0.108-2.535,0.53-9.614-6.126-9.614l0,0h-21.021v37.396H164.889L164.889,63.155   L164.889,63.155z"/>
	<path fill-rule="evenodd" clip-rule="evenodd" d="M243.276,18.363v44.792h-15.002v-38.98l0,0c-0.315-2.219-0.315-5.176-0.843-5.811   l0,0H243.276L243.276,18.363L243.276,18.363z"/>
	<path fill-rule="evenodd" clip-rule="evenodd" d="M282.188,16.887c-11.197,0.211-31.056-2.959-31.056,21.974   c0,26.196,10.773,26.196,31.056,26.196c20.285,0,29.792-2.111,29.792-25.353C311.98,16.464,298.879,17.098,282.188,16.887   L282.188,16.887L282.188,16.887L282.188,16.887z M280.816,58.033c-12.466,0-13.838-5.44-13.838-18.117   c0-13.944,4.647-16.479,14.367-16.479c9.718,0,14.79,2.114,14.79,16.69C296.135,54.706,293.282,58.033,280.816,58.033   L280.816,58.033L280.816,58.033L280.816,58.033z"/>
	<path fill-rule="evenodd" clip-rule="evenodd" d="M318.966,63.155V24.492l0,0c0-1.903-0.108-4.015-0.846-6.128l0,0H334.6l0,0   c3.805-0.209,7.184,0.423,11.198,7.184l0,0l18.382,27.888l0,0c1.268,1.903,2.957,1.479,2.957-0.632l0,0v-34.44h7.606v44.792   h-14.788l0,0c-3.803,0.211-7.816-0.635-12.468-7.395l0,0l-17.534-26.62l0,0c-1.481-1.9-3.381-2.114-3.381,0.211l0,0v28.523l0,0   c0,1.9-0.105,3.592,0.527,5.281l0,0H318.966L318.966,63.155L318.966,63.155z"/>
	<path fill-rule="evenodd" clip-rule="evenodd" d="M436.428,18.363h-39.086l0,0c-5.706,0-15.847,0.846-15.847,21.552   c0,20.3,5.492,23.239,15.847,23.239l0,0h33.381l5.6-7.395h-30.583l0,0c-3.486-0.054-8.187,0.582-8.187-15.001   c0-16.27,2.957-15,7.817-15l0,0h25.672L436.428,18.363L436.428,18.363L436.428,18.363z"/>
	<path fill-rule="evenodd" clip-rule="evenodd" d="M545.039,46.686l6.569,10.764l0,0c1.689,2.325,3.379,4.438,4.541,5.706l0,0   h-15.528l0,0c-2.325,0-6.233-1.268-8.557-4.649l0,0l-8.347-12.676l0,0c-1.478-1.268-2.324-2.959-4.646-5.071l0,0h12.887l0,0   c4.279,0,5.281-5.069,5.281-7.606c0-2.534,0-7.182-5.703-7.182l0,0h-19.438v37.184h-58.736l0,0   c-10.352,0-15.847-2.939-15.847-23.239c0-20.707,10.144-21.552,15.847-21.552l0,0h38.665l-6.074,7.395h-25.142l0,0   c-3.381,0-7.073-1.267-7.238,15c-0.157,15.688,6.287,15.001,8.346,15.001l0,0h35.389V18.363h40.778l0,0   c13.733,0,14.791,8.876,14.577,14.579c-0.186,5.03-1.685,9.157-6.528,11.296C545.11,44.616,544.28,45.323,545.039,46.686   L545.039,46.686L545.039,46.686L545.039,46.686z"/>
	<path fill-rule="evenodd" clip-rule="evenodd" d="M559.811,21.683c-2.451,0-4.634,1.694-4.634,4.609c0,2.915,2.183,4.61,4.634,4.61   c2.438,0,4.621-1.695,4.621-4.61C564.431,23.377,562.248,21.683,559.811,21.683L559.811,21.683L559.811,21.683L559.811,21.683z    M559.811,29.841v-0.013l0,0c-1.829,0.013-3.304-1.414-3.304-3.537c0-2.121,1.475-3.536,3.304-3.536   c1.779,0,3.291,1.415,3.291,3.536C563.102,28.415,561.59,29.841,559.811,29.841L559.811,29.841L559.811,29.841L559.811,29.841z"/>
	<path fill-rule="evenodd" clip-rule="evenodd" d="M560.677,26.596c0.658-0.047,1.193-0.377,1.193-1.292   c0-1.134-0.756-1.5-2.037-1.5l0,0h-1.852v4.963h1.06v-2.086h0.499l1.146,2.086h1.257L560.677,26.596L560.677,26.596L560.677,26.596   z M559.98,25.842h-0.939v-1.196h0.743l0,0c0.404,0,0.951,0.036,0.951,0.549C560.736,25.744,560.456,25.842,559.98,25.842   L559.98,25.842L559.98,25.842L559.98,25.842z"/>
</g>
</svg>