<svg width="217" height="217" viewBox="0 0 217 217" fill="none"
    xmlns="http://www.w3.org/2000/svg">
    <g clip-path="url(#clip0_1_432)">
        <path d="M108.494 4.5C165.929 4.5 212.489 51.0622 212.489 108.5C212.489 165.938 165.929 212.5 108.494 212.5C51.0599 212.5 4.5 165.938 4.5 108.5C4.5 51.0623 51.0599 4.50024 108.494 4.5Z" stroke="white" stroke-width="9"/>
        <path d="M135.849 116.744C140.404 116.744 144.222 114.9 146.89 111.418C149.775 107.654 151.294 102.014 151.294 95.1043C151.294 75.1137 144.515 66.3821 123.386 59.1365C116.694 56.8695 101.64 52.1945 90.3272 49.9059V159.74L112.649 166.823V74.2785C112.649 68.5514 115.859 65.0045 119.948 66.3604C126.065 68.0525 126.065 74.9836 126.065 77.5976V114.411C129.536 115.952 132.823 116.744 135.849 116.744Z" fill="white"/>
        <path d="M184.31 139.63C185.275 138.415 185.579 137.157 185.199 135.91C184.733 134.38 182.737 131.43 174.732 128.892C164.776 125.117 151.12 123.534 139.938 124.738C129.146 125.931 121.326 128.664 121.239 128.697L120.751 128.859V140.747L145.968 131.864C150.806 130.128 158.29 129.738 162.335 131.061C165.242 132.016 165.871 133.545 165.882 134.662C165.893 135.997 165.025 137.895 160.784 139.413L120.751 153.688V165.022L174.44 145.748C174.505 145.726 181.565 143.09 184.31 139.63Z" fill="white"/>
        <path d="M82.1166 118.555L47.6257 130.815C47.5064 130.859 38.9162 133.712 33.9595 137.38C32.2024 138.682 31.4106 140.287 31.7035 141.904C32.2566 144.92 36.2046 147.731 42.246 149.434C54.8818 153.611 68.1359 154.675 80.9452 152.57L82.1058 152.374V142.783L71.6392 146.58C66.8018 148.316 59.307 148.707 55.2614 147.383C52.3546 146.429 51.7256 144.899 51.7147 143.781C51.693 142.447 52.5716 140.548 56.8233 139.018L82.1166 129.958V118.555V118.555Z" fill="white"/>
    </g>
    <defs>
        <clipPath id="clip0_1_432">
            <rect width="217" height="217" fill="white"/>
        </clipPath>
    </defs>
</svg>
