<svg xmlns="http://www.w3.org/2000/svg" width="100%" height="100%" viewBox="7 6 33 36">
    <g fill="none" fill-rule="none" stroke="none" stroke-width="none" stroke-linecap="butt" stroke-linejoin="miter" stroke-miterlimit="10" stroke-dasharray="" stroke-dashoffset="0" font-family="none" font-weight="none" font-size="none" text-anchor="none" style="mix-blend-mode: normal">
        <path d="M17,7h5v34h-6c-4.401,0 -8,-3.33 -8,-8.053v-17c0,-5.677 3.719,-8.947 9,-8.947z" fill="none" fill-rule="nonzero" stroke="#ffffff" stroke-width="2"></path>
        <path d="M30,6h-5v36h5c5,0 10,-4 10,-9v-17c0,-6 -4.342,-10 -10,-10zM32.5,31c-1.934,0 -3.5,-1.566 -3.5,-3.5c0,-1.934 1.566,-3.5 3.5,-3.5c1.934,0 3.5,1.566 3.5,3.5c0,1.934 -1.566,3.5 -3.5,3.5z" fill="#ffffff" fill-rule="nonzero" stroke="none" stroke-width="1"></path>
        <circle cx="15.5" cy="16.5" r="3.5" fill="#ffffff" fill-rule="evenodd" stroke="none" stroke-width="1"></circle>
    </g>
</svg>